<svg xmlns="http://www.w3.org/2000/svg" width="26" height="16.25" viewBox="0 0 26 16.25">
  <path id="Path_1695" data-name="Path 1695" d="M638,85.65v15.167a.466.466,0,0,1-.433.433h-.217c-.217,0-.217,0-.433-.217L631.5,95.617v4.116c0,.434-.217.65-.433,1.084a2.33,2.33,0,0,1-1.3.433H613.733a1.659,1.659,0,0,1-1.083-.433c-.433-.434-.65-.65-.65-1.084v-13a1.659,1.659,0,0,1,.433-1.083,1.546,1.546,0,0,1,1.3-.65h16.25a1.66,1.66,0,0,1,1.084.433,3.093,3.093,0,0,1,.433,1.3V90.85l5.633-5.633c0-.217.217-.217.434-.217C637.783,85.217,638,85.217,638,85.65Z" transform="translate(-612 -85)" fill="#2d2c71"/>
</svg>
