<svg xmlns="http://www.w3.org/2000/svg" width="24.434" height="19" viewBox="0 0 24.434 19">
  <path id="Path_1696" data-name="Path 1696" d="M412.831,91.307l-3.546-2.923V82.509a.509.509,0,0,0-.509-.509H406.4a.509.509,0,0,0-.509.509v3.08l-3.8-3.125a2.037,2.037,0,0,0-2.587,0L388.77,91.307a.508.508,0,0,0-.068.717l1.081,1.315a.511.511,0,0,0,.718.069l9.977-8.218a.519.519,0,0,1,.649,0l9.977,8.218a.509.509,0,0,0,.717-.068l1.082-1.315a.51.51,0,0,0-.072-.718Zm-12.353-4.378-7.82,6.441v6.952a.677.677,0,0,0,.678.678l4.753-.012a.679.679,0,0,0,.676-.678V96.25a.678.678,0,0,1,.678-.679h2.715a.679.679,0,0,1,.679.679v4.057a.678.678,0,0,0,.678.68l4.752.013a.677.677,0,0,0,.678-.678V93.366l-7.818-6.437A.516.516,0,0,0,400.478,86.929Z" transform="translate(-388.585 -82)" fill="#3d3c70"/>
</svg>
